{
	"asset":{
		"generator":"Khronos glTF Blender I/O v4.5.47",
		"version":"2.0"
	},
	"scene":0,
	"scenes":[
		{
			"name":"Scene",
			"nodes":[
				3
			]
		}
	],
	"nodes":[
		{
			"name":"SPEEENENNNN",
			"rotation":[
				8.156453290553145e-09,
				2.5376097667617614e-08,
				4.86162448070927e-16,
				1
			],
			"scale":[
				1,
				0.9999999403953552,
				1
			],
			"translation":[
				-3.803872235490761e-16,
				0.6812499165534973,
				1.1113161946241235e-08
			]
		},
		{
			"children":[
				0
			],
			"name":"Base",
			"rotation":[
				-1.3891455097336802e-08,
				1.7114272665708086e-08,
				-4.754842742818064e-16,
				1
			]
		},
		{
			"mesh":0,
			"name":"Mesh_0",
			"skin":0
		},
		{
			"children":[
				2,
				1
			],
			"name":"Base"
		}
	],
	"animations":[
		{
			"channels":[
				{
					"sampler":0,
					"target":{
						"node":1,
						"path":"translation"
					}
				},
				{
					"sampler":1,
					"target":{
						"node":1,
						"path":"rotation"
					}
				},
				{
					"sampler":2,
					"target":{
						"node":1,
						"path":"scale"
					}
				},
				{
					"sampler":3,
					"target":{
						"node":0,
						"path":"translation"
					}
				},
				{
					"sampler":4,
					"target":{
						"node":0,
						"path":"rotation"
					}
				},
				{
					"sampler":5,
					"target":{
						"node":0,
						"path":"scale"
					}
				}
			],
			"name":"BaseAction",
			"samplers":[
				{
					"input":7,
					"interpolation":"STEP",
					"output":8
				},
				{
					"input":7,
					"interpolation":"STEP",
					"output":9
				},
				{
					"input":7,
					"interpolation":"STEP",
					"output":10
				},
				{
					"input":11,
					"interpolation":"LINEAR",
					"output":12
				},
				{
					"input":11,
					"interpolation":"LINEAR",
					"output":13
				},
				{
					"input":7,
					"interpolation":"STEP",
					"output":14
				}
			]
		},
		{
			"channels":[
				{
					"sampler":0,
					"target":{
						"node":1,
						"path":"translation"
					}
				},
				{
					"sampler":1,
					"target":{
						"node":1,
						"path":"rotation"
					}
				},
				{
					"sampler":2,
					"target":{
						"node":1,
						"path":"scale"
					}
				},
				{
					"sampler":3,
					"target":{
						"node":0,
						"path":"translation"
					}
				},
				{
					"sampler":4,
					"target":{
						"node":0,
						"path":"rotation"
					}
				},
				{
					"sampler":5,
					"target":{
						"node":0,
						"path":"scale"
					}
				}
			],
			"name":"BaseAction.001",
			"samplers":[
				{
					"input":15,
					"interpolation":"LINEAR",
					"output":16
				},
				{
					"input":15,
					"interpolation":"LINEAR",
					"output":17
				},
				{
					"input":15,
					"interpolation":"LINEAR",
					"output":18
				},
				{
					"input":15,
					"interpolation":"LINEAR",
					"output":19
				},
				{
					"input":15,
					"interpolation":"LINEAR",
					"output":20
				},
				{
					"input":15,
					"interpolation":"LINEAR",
					"output":21
				}
			]
		}
	],
	"materials":[
		{
			"alphaCutoff":0.05000000074505806,
			"alphaMode":"MASK",
			"doubleSided":true,
			"name":"Material_0",
			"pbrMetallicRoughness":{
				"baseColorTexture":{
					"index":0
				},
				"metallicFactor":0
			}
		}
	],
	"meshes":[
		{
			"name":"Mesh_0",
			"primitives":[
				{
					"attributes":{
						"POSITION":0,
						"NORMAL":1,
						"TEXCOORD_0":2,
						"JOINTS_0":3,
						"WEIGHTS_0":4
					},
					"indices":5,
					"material":0
				}
			]
		}
	],
	"textures":[
		{
			"sampler":0,
			"source":0
		}
	],
	"images":[
		{
			"mimeType":"image/png",
			"name":"Image_0",
			"uri":"Image_0.png"
		}
	],
	"skins":[
		{
			"inverseBindMatrices":6,
			"joints":[
				1,
				0
			],
			"name":"Base"
		}
	],
	"accessors":[
		{
			"bufferView":0,
			"componentType":5126,
			"count":192,
			"max":[
				0.5,
				1,
				0.5
			],
			"min":[
				-0.5,
				0,
				-0.5
			],
			"type":"VEC3"
		},
		{
			"bufferView":1,
			"componentType":5126,
			"count":192,
			"type":"VEC3"
		},
		{
			"bufferView":2,
			"componentType":5126,
			"count":192,
			"type":"VEC2"
		},
		{
			"bufferView":3,
			"componentType":5121,
			"count":192,
			"type":"VEC4"
		},
		{
			"bufferView":4,
			"componentType":5126,
			"count":192,
			"type":"VEC4"
		},
		{
			"bufferView":5,
			"componentType":5123,
			"count":288,
			"type":"SCALAR"
		},
		{
			"bufferView":6,
			"componentType":5126,
			"count":2,
			"type":"MAT4"
		},
		{
			"bufferView":7,
			"componentType":5126,
			"count":2,
			"max":[
				1
			],
			"min":[
				0
			],
			"type":"SCALAR"
		},
		{
			"bufferView":8,
			"componentType":5126,
			"count":2,
			"type":"VEC3"
		},
		{
			"bufferView":9,
			"componentType":5126,
			"count":2,
			"type":"VEC4"
		},
		{
			"bufferView":10,
			"componentType":5126,
			"count":2,
			"type":"VEC3"
		},
		{
			"bufferView":11,
			"componentType":5126,
			"count":25,
			"max":[
				1
			],
			"min":[
				0
			],
			"type":"SCALAR"
		},
		{
			"bufferView":12,
			"componentType":5126,
			"count":25,
			"type":"VEC3"
		},
		{
			"bufferView":13,
			"componentType":5126,
			"count":25,
			"type":"VEC4"
		},
		{
			"bufferView":14,
			"componentType":5126,
			"count":2,
			"type":"VEC3"
		},
		{
			"bufferView":15,
			"componentType":5126,
			"count":1,
			"max":[
				0
			],
			"min":[
				0
			],
			"type":"SCALAR"
		},
		{
			"bufferView":16,
			"componentType":5126,
			"count":1,
			"type":"VEC3"
		},
		{
			"bufferView":17,
			"componentType":5126,
			"count":1,
			"type":"VEC4"
		},
		{
			"bufferView":18,
			"componentType":5126,
			"count":1,
			"type":"VEC3"
		},
		{
			"bufferView":19,
			"componentType":5126,
			"count":1,
			"type":"VEC3"
		},
		{
			"bufferView":20,
			"componentType":5126,
			"count":1,
			"type":"VEC4"
		},
		{
			"bufferView":21,
			"componentType":5126,
			"count":1,
			"type":"VEC3"
		}
	],
	"bufferViews":[
		{
			"buffer":0,
			"byteLength":2304,
			"byteOffset":0,
			"target":34962
		},
		{
			"buffer":0,
			"byteLength":2304,
			"byteOffset":2304,
			"target":34962
		},
		{
			"buffer":0,
			"byteLength":1536,
			"byteOffset":4608,
			"target":34962
		},
		{
			"buffer":0,
			"byteLength":768,
			"byteOffset":6144,
			"target":34962
		},
		{
			"buffer":0,
			"byteLength":3072,
			"byteOffset":6912,
			"target":34962
		},
		{
			"buffer":0,
			"byteLength":576,
			"byteOffset":9984,
			"target":34963
		},
		{
			"buffer":0,
			"byteLength":128,
			"byteOffset":10560
		},
		{
			"buffer":0,
			"byteLength":8,
			"byteOffset":10688
		},
		{
			"buffer":0,
			"byteLength":24,
			"byteOffset":10696
		},
		{
			"buffer":0,
			"byteLength":32,
			"byteOffset":10720
		},
		{
			"buffer":0,
			"byteLength":24,
			"byteOffset":10752
		},
		{
			"buffer":0,
			"byteLength":100,
			"byteOffset":10776
		},
		{
			"buffer":0,
			"byteLength":300,
			"byteOffset":10876
		},
		{
			"buffer":0,
			"byteLength":400,
			"byteOffset":11176
		},
		{
			"buffer":0,
			"byteLength":24,
			"byteOffset":11576
		},
		{
			"buffer":0,
			"byteLength":4,
			"byteOffset":11600
		},
		{
			"buffer":0,
			"byteLength":12,
			"byteOffset":11604
		},
		{
			"buffer":0,
			"byteLength":16,
			"byteOffset":11616
		},
		{
			"buffer":0,
			"byteLength":12,
			"byteOffset":11632
		},
		{
			"buffer":0,
			"byteLength":12,
			"byteOffset":11644
		},
		{
			"buffer":0,
			"byteLength":16,
			"byteOffset":11656
		},
		{
			"buffer":0,
			"byteLength":12,
			"byteOffset":11672
		}
	],
	"samplers":[
		{
			"magFilter":9728,
			"minFilter":9984,
			"wrapS":33071,
			"wrapT":33071
		}
	],
	"buffers":[
		{
			"byteLength":11684,
			"uri":"Super%20Miner.bin"
		}
	]
}
